<svg width="48" height="48" viewBox="0 0 48 48" fill="none" xmlns="http://www.w3.org/2000/svg">
  <defs>
    <linearGradient id="spiralGradient" x1="0%" y1="0%" x2="100%" y2="100%">
      <stop offset="0%" style="stop-color:#2C3E50;stop-opacity:1" />
      <stop offset="50%" style="stop-color:#3498DB;stop-opacity:1" />
      <stop offset="100%" style="stop-color:#2980B9;stop-opacity:1" />
    </linearGradient>
  </defs>
  
  <!-- Outer spiral -->
  <path d="M24 4 C35 4 44 13 44 24 C44 35 35 44 24 44 C13 44 4 35 4 24 C4 17 8 11 14 8 C17 6 21 6 24 8 C29 11 32 16 32 22 C32 26 29 30 25 31 C23 32 21 31 20 29 C19 27 20 25 22 24 C23 24 24 24 24 25" 
        stroke="url(#spiralGradient)" 
        stroke-width="3" 
        fill="none" 
        stroke-linecap="round"/>
  
  <!-- Inner accent -->
  <circle cx="24" cy="24" r="3" fill="url(#spiralGradient)" opacity="0.8"/>
  
  <!-- Center dot */
  <circle cx="24" cy="24" r="1.5" fill="#FFFFFF"/>
</svg>